<svg width="152" height="113" viewBox="0 0 152 113" fill="none" xmlns="http://www.w3.org/2000/svg">
<path d="M0.24 23.68L13.2 23.36C13.7333 23.36 15.0933 24.8267 17.28 27.76C19.52 30.6933 22.0267 34.6667 24.8 39.68C27.6267 44.64 29.7867 49.36 31.28 53.84C32.08 52.4533 33.28 50.4 34.88 47.68C36.48 44.9067 37.68 42.8 38.48 41.36C39.3333 39.8667 40.2933 38.1067 41.36 36.08C43.3333 32.4533 44.5867 29.4133 45.12 26.96C44 26.7467 41.84 26.64 38.64 26.64C38.48 26.2667 38.4 25.84 38.4 25.36C38.4 24.88 38.48 24.48 38.64 24.16C42.16 24.32 45.5467 24.4 48.8 24.4C52.0533 24.4 54.9067 24.1867 57.36 23.76C57.68 24.2933 57.84 24.7467 57.84 25.12L57.68 25.76C56.24 26.1867 54.5867 27.0933 52.72 28.48C50.32 30.1867 46.7467 34.6933 42 42C37.2533 49.3067 34.5333 54.2933 33.84 56.96C33.4133 58.08 33.2 61.1733 33.2 66.24C33.2 71.2533 33.4667 75.5733 34 79.2C36.1867 79.5733 39.2533 79.76 43.2 79.76C43.36 80.1333 43.44 80.56 43.44 81.04L43.2 82.24L30.48 82C24.2933 82 19.1733 82.2133 15.12 82.64C14.8533 82.32 14.72 81.8667 14.72 81.28L14.8 80.64C19.92 79.84 23.04 78.64 24.16 77.04C25.28 75.44 25.84 72.4267 25.84 68C25.84 63.5733 25.4667 59.92 24.72 57.04C23.9733 54.1067 21.7867 49.6 18.16 43.52C14.5867 37.44 11.3333 32.8 8.4 29.6C7.22667 28.2667 6.10667 27.3867 5.04 26.96C4.02667 26.48 2.42667 26.1867 0.24 26.08C0.08 25.76 0 25.3333 0 24.8C0 24.2133 0.08 23.84 0.24 23.68Z" fill="#B00909"/>
<path d="M88.32 68.44C88.32 72.1733 87.7867 75.6133 86.72 78.76C85.7067 81.8533 84.4 84.4133 82.8 86.44C81.2533 88.4133 79.44 90.2 77.36 91.8C75.28 93.3467 73.28 94.5467 71.36 95.4C69.4933 96.2 67.6 96.8667 65.68 97.4C62.8533 98.2 60.72 98.6 59.28 98.6C51.4933 98.6 44.8533 95.72 39.36 89.96C33.8667 84.1467 31.12 76.9733 31.12 68.44C31.12 64.7067 31.6267 61.2933 32.64 58.2C33.7067 55.0533 35.0133 52.4667 36.56 50.44C38.16 48.4133 40 46.6267 42.08 45.08C44.16 43.48 46.16 42.2533 48.08 41.4C50 40.5467 51.8933 39.8533 53.76 39.32C56.5333 38.52 58.6933 38.12 60.24 38.12C67.9733 38.12 74.5867 41.08 80.08 47C85.5733 52.8667 88.32 60.0133 88.32 68.44ZM61.76 94.44C67.7867 94.44 72.3467 92.4133 75.44 88.36C78.5867 84.2533 80.16 79 80.16 72.6C80.16 67.64 79.2533 62.8667 77.44 58.28C75.68 53.6933 73.0667 49.88 69.6 46.84C66.1333 43.7467 62.24 42.2 57.92 42.2C51.8933 42.2 47.2533 44.3067 44 48.52C40.8 52.68 39.2 57.8533 39.2 64.04C39.2 69 40.1067 73.8 41.92 78.44C43.7867 83.0267 46.48 86.84 50 89.88C53.52 92.92 57.44 94.44 61.76 94.44Z" fill="white"/>
<path d="M87.6 54.64L100.4 54.88C102.907 54.88 105.36 54.6667 107.76 54.24C107.973 54.7733 108.08 55.2267 108.08 55.6L107.92 56.56C105.893 57.4133 104.773 59.1467 104.56 61.76C104.187 65.3867 104 70.5067 104 77.12C100.8 77.12 97.0933 77.52 92.88 78.32C88.6667 79.1733 85.3067 79.6 82.8 79.6C73.6267 79.6 66.3733 76.7467 61.04 71.04C55.76 65.28 53.12 58.0533 53.12 49.36C53.12 40.6133 56 33.3867 61.76 27.68C67.52 21.9733 74.88 19.12 83.84 19.12C91.0933 19.12 97.52 19.8933 103.12 21.44C103.493 21.5467 103.68 21.7333 103.68 22C103.68 22.2667 103.653 22.6133 103.6 23.04C103.6 23.4667 103.547 24.08 103.44 24.88C103.387 25.6267 103.333 26.48 103.28 27.44C103.173 29.4667 103.12 32.1333 103.12 35.44C102.747 35.6533 102.24 35.76 101.6 35.76C100.96 35.76 100.453 35.68 100.08 35.52C99.12 31.2 98.4267 28.5067 98 27.44C93.7867 23.8133 88.6667 22 82.64 22C76.6667 22 71.68 24.1333 67.68 28.4C63.7333 32.6667 61.76 38.5067 61.76 45.92C61.76 51.1467 62.6133 56.0533 64.32 60.64C66.08 65.2267 68.6667 69.0133 72.08 72C75.5467 74.9333 79.5467 76.4 84.08 76.4C88.6667 76.4 93.04 75.44 97.2 73.52V68.64C97.2 64.64 97.04 61.0133 96.72 57.76C94 57.44 90.96 57.28 87.6 57.28C87.3867 56.9067 87.28 56.48 87.28 56L87.6 54.64Z" fill="white"/>
<path d="M120.96 38.76L141.12 97H132.88L126.16 77H106.96L100.16 97H93.44L113.68 38.76H120.96ZM116.64 48.52L108.8 71.56H124.32L116.64 48.52Z" fill="#A40A0A"/>
</svg>
