<svg width="68" height="48" viewBox="0 0 68 48" fill="none" xmlns="http://www.w3.org/2000/svg">
<path d="M39.475 8.17C40.385 8.17 41.3533 8.275 42.38 8.485C43.43 8.67167 44.4333 8.98667 45.39 9.43C46.37 9.85 47.1867 10.3983 47.84 11.075L45.985 13.245C45.2617 12.6617 44.585 12.1833 43.955 11.81C43.325 11.4367 42.66 11.1567 41.96 10.97C41.2833 10.7833 40.455 10.69 39.475 10.69C37.935 10.69 36.6283 10.9817 35.555 11.565C34.505 12.1483 33.6417 12.9417 32.965 13.945C32.3117 14.9483 31.8333 16.08 31.53 17.34C31.2267 18.6 31.075 19.9067 31.075 21.26C31.075 22.5433 31.215 23.815 31.495 25.075C31.775 26.3117 32.23 27.4433 32.86 28.47C33.49 29.4967 34.3183 30.3133 35.345 30.92C36.3717 31.5267 37.6317 31.83 39.125 31.83C40.3617 31.83 41.4233 31.5617 42.31 31.025C43.22 30.465 43.92 29.7183 44.41 28.785C44.9233 27.8283 45.18 26.755 45.18 25.565V23.255H38.915L39.335 20.875H48.47V28.19C48.47 29.1467 48.505 30.115 48.575 31.095C48.6683 32.075 48.7383 33.0433 48.785 34H47.035L45.915 31.34C44.8883 32.4367 43.78 33.23 42.59 33.72C41.4233 34.1867 40.0817 34.42 38.565 34.42C36.7217 34.42 35.1117 34.0817 33.735 33.405C32.3817 32.705 31.25 31.76 30.34 30.57C29.43 29.3567 28.7533 27.98 28.31 26.44C27.8667 24.9 27.645 23.2783 27.645 21.575C27.645 19.7083 27.89 17.97 28.38 16.36C28.87 14.7267 29.605 13.3033 30.585 12.09C31.565 10.8533 32.79 9.89667 34.26 9.22C35.7533 8.52 37.4917 8.17 39.475 8.17Z" fill="#FDF4F4"/>
<path d="M55.67 14.52L64.49 40H60.885L57.945 31.25H49.545L46.57 40H43.63L52.485 14.52H55.67ZM53.78 18.79L50.35 28.87H57.14L53.78 18.79Z" fill="#A40A0A"/>
<path d="M0.105 8.485L5.775 8.345C6.00833 8.345 6.60333 8.98667 7.56 10.27C8.54 11.5533 9.63667 13.2917 10.85 15.485C12.0867 17.655 13.0317 19.72 13.685 21.68C14.035 21.0733 14.56 20.175 15.26 18.985C15.96 17.7717 16.485 16.85 16.835 16.22C17.2083 15.5667 17.6283 14.7967 18.095 13.91C18.9583 12.3233 19.5067 10.9933 19.74 9.92C19.25 9.82667 18.305 9.78 16.905 9.78C16.835 9.61666 16.8 9.43 16.8 9.22C16.8 9.01 16.835 8.835 16.905 8.695C18.445 8.765 19.9267 8.8 21.35 8.8C22.7733 8.8 24.0217 8.70667 25.095 8.52C25.235 8.75333 25.305 8.95167 25.305 9.115L25.235 9.395C24.605 9.58167 23.8817 9.97833 23.065 10.585C22.015 11.3317 20.4517 13.3033 18.375 16.5C16.2983 19.6967 15.1083 21.8783 14.805 23.045C14.6183 23.535 14.525 24.8883 14.525 27.105C14.525 29.2983 14.6417 31.1883 14.875 32.775C15.8317 32.9383 17.1733 33.02 18.9 33.02C18.97 33.1833 19.005 33.37 19.005 33.58L18.9 34.105L13.335 34C10.6283 34 8.38833 34.0933 6.615 34.28C6.49833 34.14 6.44 33.9417 6.44 33.685L6.475 33.405C8.715 33.055 10.08 32.53 10.57 31.83C11.06 31.13 11.305 29.8117 11.305 27.875C11.305 25.9383 11.1417 24.34 10.815 23.08C10.4883 21.7967 9.53167 19.825 7.945 17.165C6.38167 14.505 4.95833 12.475 3.675 11.075C3.16167 10.4917 2.67167 10.1067 2.205 9.92C1.76167 9.71 1.06167 9.58167 0.105 9.535C0.035 9.395 0 9.20833 0 8.975C0 8.71833 0.035 8.555 0.105 8.485Z" fill="#B00909"/>
<path d="M39.265 27.505C39.265 29.1383 39.0317 30.6433 38.565 32.02C38.1217 33.3733 37.55 34.4933 36.85 35.38C36.1733 36.2433 35.38 37.025 34.47 37.725C33.56 38.4017 32.685 38.9267 31.845 39.3C31.0283 39.65 30.2 39.9417 29.36 40.175C28.1233 40.525 27.19 40.7 26.56 40.7C23.1533 40.7 20.2483 39.44 17.845 36.92C15.4417 34.3767 14.24 31.2383 14.24 27.505C14.24 25.8717 14.4617 24.3783 14.905 23.025C15.3717 21.6483 15.9433 20.5167 16.62 19.63C17.32 18.7433 18.125 17.9617 19.035 17.285C19.945 16.585 20.82 16.0483 21.66 15.675C22.5 15.3017 23.3283 14.9983 24.145 14.765C25.3583 14.415 26.3033 14.24 26.98 14.24C30.3633 14.24 33.2567 15.535 35.66 18.125C38.0633 20.6917 39.265 23.8183 39.265 27.505ZM27.645 38.88C30.2817 38.88 32.2767 37.9933 33.63 36.22C35.0067 34.4233 35.695 32.125 35.695 29.325C35.695 27.155 35.2983 25.0667 34.505 23.06C33.735 21.0533 32.5917 19.385 31.075 18.055C29.5583 16.7017 27.855 16.025 25.965 16.025C23.3283 16.025 21.2983 16.9467 19.875 18.79C18.475 20.61 17.775 22.8733 17.775 25.58C17.775 27.75 18.1717 29.85 18.965 31.88C19.7817 33.8867 20.96 35.555 22.5 36.885C24.04 38.215 25.755 38.88 27.645 38.88Z" fill="white"/>
</svg>
